/* XPM */
static char *icon[] = {
/* columns rows colors chars-per-pixel */
"128 128 64 1 ",
"  c #FFFF03030303",
". c #FFFF05050505",
"X c #FFFF0A0A0A0A",
"o c #FFFF0F0F0F0F",
"O c #FFFF11111111",
"+ c #FFFF17171717",
"@ c #FFFF1A1A1A1A",
"# c #FFFF1D1D1D1D",
"$ c #FFFF22222222",
"% c #FFFF27272727",
"& c #FFFF28282828",
"* c #FFFF2E2E2E2E",
"= c #FFFF33333333",
"- c #FFFF34343434",
"; c #FFFF3A3A3A3A",
": c #FFFF3F3F3F3F",
"> c #FFFF42424242",
", c #FFFF44444444",
"< c #FFFF4A4A4A4A",
"1 c #FFFF4F4F4F4F",
"2 c #FFFF50505050",
"3 c #FFFF55555555",
"4 c #FFFF59595959",
"5 c #FFFF5C5C5C5C",
"6 c #FFFF61616161",
"7 c #FFFF66666666",
"8 c #FFFF69696969",
"9 c #FFFF6F6F6F6F",
"0 c #FFFF71717171",
"q c #FFFF75757575",
"w c #FFFF78787878",
"e c #FFFF7D7D7D7D",
"r c #FFFF80808080",
"t c #FFFF87878787",
"y c #FFFF89898989",
"u c #FFFF8D8D8D8D",
"i c #FFFF92929292",
"p c #FFFF94949494",
"a c #FFFF98989898",
"s c #FFFF9D9D9D9D",
"d c #FFFFA1A1A1A1",
"f c #FFFFA7A7A7A7",
"g c #FFFFAAAAAAAA",
"h c #FFFFAEAEAEAE",
"j c #FFFFB1B1B1B1",
"k c #FFFFB7B7B7B7",
"l c #FFFFBABABABA",
"z c #FFFFBDBDBDBD",
"x c #FFFFC1C1C1C1",
"c c #FFFFC6C6C6C6",
"v c #FFFFCACACACA",
"b c #FFFFCFCFCFCF",
"n c #FFFFD3D3D3D3",
"m c #FFFFD6D6D6D6",
"M c #FFFFDADADADA",
"N c #FFFFDDDDDDDD",
"B c #FFFFE0E0E0E0",
"V c #FFFFE4E4E4E4",
"C c #FFFFEBEBEBEB",
"Z c #FFFFEDEDEDED",
"A c #FFFFF0F0F0F0",
"S c #FFFFF5F5F5F5",
"D c #FFFFFBFBFBFB",
"F c gray100",
/* pixels */
"FFFFFFFFFFFFFFFFFFFFFFFFFFFFFFFFFFFFFFFFFFFFFFFFFFFFFFFFFFFFFFFFFFFFFFFFFFFFFFFFFFFFFFFFFFFFFFFFFFFFFFFFFFFFFFFFFFFFFFFFFFFFFFFF",
"FFFFFFFFFFFFFFFFFFFFFFFFFFFFFFFFFFFFFFFFFFFFFFFFFFFFFFFFFFFFFFFFFFFFFFFFFFFFFFFFFFFFFFFFFFFFFFFFFFFFFFFFFFFFFFFFFFFFFFFFFFFFFFFF",
"FFFFFFFFFFFFFFFFFFFFFFFFFFFFFFFFFFFFFFFFFFFFFFFFFFFFFFFFFFFFFFFFFFFFFFFFFFFFFFFFFFFFFFFFFFFFFFFFFFFFFFFFFFFFFFFFFFFFFFFFFFFFFFFF",
"FFFFFFFFFFFFFFFFFFFFFFFFFFFFFFFFFFFFFFFFFFFFFFFFFFFFFFFFFFFFFFFFFFFFFFFFFFFFFFFFFFFFFFFFFFFFFFFFFFFFFFFFFFFFFFFFFFFFFFFFFFFFFFFF",
"FFFFFFFFFFFFFFFFFFFFFFFFFFFFFFFFFFFFFFFFFFFFFFFFFFFFFFFFFFFFFFFFFFFFFFFFFFFFFFFFFFFFFFFFFFFFFFFFFFFFFFFFFFFFFFFFFFFFFFFFFFFFFFFF",
"FFFFFFFFFFFFFFFFFFFFFFFFCBVBZFFFFFFFFFFFFFFFFFFFFFFFFFFFFFFFFFFFFFFFFFFFFFFFFFFFFFFFFFFFFFFFFFFFFFFFCBVVCFFFFFFFFFFFFFFFFFFFFFFF",
"FFFFFFFFFFFFFFFFFFFFzy5;-;:>>20sbFFFFFFFFFFFFFFFFFFFFFFFFFFFFFFFFFFFFFFFFFFFFFFFFFFFFFFFFFFFFFFFxu5>-;::>19avFFFFFFFFFFFFFFFFFFF",
"FFFFFFFFFFFFFFFFFCu;&-;:,<<1122116hSFFFFFFFFFFFFFFFFFFFFFFFFFFFFFFFFFFFFFFFFFFFFFFFFFFFFFFFFFAp:&=;:,<<1111115fAFFFFFFFFFFFFFFFF",
"FFFFFFFFFFFFFFFSe$%=-:,<234455554424gDFFFFFFFFFFFFFFFFFFFFFFFFFFFFFFFFFFFFFFFFFFFFFFFFFFFFFDu&%*;:><234455554333dSFFFFFFFFFFFFFF",
"FFFFFFFFFFFFFFc*$%=;>12356789898866438BFFFFFFFFFFFFFFFFFFFFFFFFFFFFFFFFFFFFFFFFFFFFFFFFFFFn-#%*;><2356779898775437MFFFFFFFFFFFFF",
"FFFFFFFFFFFFFa@@%=;,1247890qqwwqq987644vFFFFFFFFFFFFFFFFFFFFFFFFFFFFFFFFFFFFFFFFFFFFFFFFFf@#%=;>134689qqqqwqq097543lFFFFFFFFFFFF",
"FFFFFFFFFFFFeo@%*;>13679qwrrtttrrew08642kFFFFFFFFFFFFFFFFFFFFFFFFFFFFFFFFFFFFFFFFFFFFFFFio@$*;>13579qwerttttreq08742fFFFFFFFFFFF",
"FFFFFFFFFFFwX+$*->13680wryuiipiiuytw09741kFFFFFFFFFFFFFFFFFFFFFFFFFFFFFFFFFFFFFFFFFFFFFyX+$&->14580wrtuuiipiuytwq9742fFFFFFFFFFF",
"FFFFFFFFFFf.O#&-><3580etuppasdssaputeq8632nFFFFFFFFFFFFFFFFFFFFFFFFFFFFFFFFFFFFFFFFFFFz.o@%-:<2580wtuiaasdssapuyeq9642cFFFFFFFFF",
"FFFFFFFFFBoX+$*;,2570etupsfghhhgfsauyeq8525SFFFFFFFFFFFFFFFFFFFFFFFFFFFFFFFFFFFFFFFFFZ@.+#*;>2470wtupsfghhhgfdaiye08623ZFFFFFFFF",
"FFFFFFFFF: o@%=:1369wtuadghklllkjgfaitw0741uFFFFFFFFFFFFFFFFFFFFFFFFFFFFFFFFFFFFFFFFF4 o@%=:1369wtupdghklllkjhdaiyw0741qFFFFFFFF",
"FFFFFFFFh .O#*;,248qeypdgkzxcccczkgdpurq852<MFFFFFFFFFFFFFFFFFFFFFFFFFFFFFFFFFFFFFFFv  O#&->2470eypsgjlxccvxlkhdpurq853,bFFFFFFF",
"FFFFFFFF- X+$*;,369wtisgjzcbmmnbczjgsitw963<eFFFFFFFFFFFFFFFFFFFFFFFFFFFFFFFFFFFFFFF< XO$*:,269wtisfjzcbnmmbvzkgdite963<9FFFFFFF",
"FFFFFFFv  X+%=:<379eypdhlcbMBBBMnclhdpye063<>ZFFFFFFFFFFFFFFFFFFFFFFFFFFFFFFFFFFFFFB  X+$*:<469wtishlcnmBBBMnxlhfpye074<:NFFFFFF",
"FFFFFFF8  o+%=><470euafjzvmBZACBmvzjfaye0731:dFFFFFFFFFFFFFFFFFFFFFFFFFFFFFFFFFFFFFe  o+%*:<470eupfhzvmBZAZBMvzjfaur0741:uFFFFFF",
"FFFFFFF+  X@%=:<480ruafjzbMVSFAVmvzjfaur0741:5FFFFFFFFFFFFFFFFFFFFFFFFFFFFFFFFFFFFF*  X+$=:1470ruafjzbmVAFAVMbzkfaueq741:1FFFFFF",
"FFFFFFM   o@%=>147qruafjzbMBZAZVmvzjfpue074<:;SFFFFFFFFFFFFFFFFFFFFFFFFFFFFFFFFFFFZ   X@%=:<470eupfjzvmVZSAVmvzjfaur074<>=CFFFFF",
"FFFFFFf   X@%=:1470ruadjzcnMVVBNnclhdptw973<:*nFFFFFFFFFFFFFFFFFFFFFFFFFFFFFFFFFFFx   o+%=:<470eypdjlcnMVVVMnclhdpye0641:*zFFFFF",
"FFFFFFr   X+%*:<379wyidgkxvnMmmnczjgsutw952<;*hFFFFFFFFFFFFFFFFFFFFFFFFFFFFFFFFFFFp   X+$=;<369wyisgkzvnmmmnczkgsitq963,:*sFFFFF",
"FFFFFF9   .+$*:,268wruafhkxcvbvxzkgdpueq851>-*aFFFFFFFFFFFFFFFFFFFFFFFFFFFFFFFFFFFr   .+#*;,259qruafhkzcvvvczkhdpurq852>-*tFFFFF",
"FFFFFF5   .O$&->2570etisfhjlzzlljgdautw964<:-&uFFFFFFFFFFFFFFFFFFFFFFFFFFFFFFFFFFFq   .O#&-,1470eyiadhklzzzkjgdaitw9731:-%wFFFFF",
"FFFFFF7    o@%=:<368wrypadghjjhgfdaute0852,;*$iFFFFFFFFFFFFFFFFFFFFFFFFFFFFFFFFFFFe    o@%-:<368qeyisdfhhjhhgdaite0852,:*%wFFFFF",
"FFFFFF9    X+$*;,2479wryipsdddddapute0863<>-&#pFFFFFFFFFFFFFFFFFFFFFFFFFFFFFFFFFFFt    .+$&;>1469qryipssdfdsapuyeq8631:=&#tFFFFF",
"FFFFFFy     O#&-:,2579qetuiipppiuyreq8631>;*$@jFFFFFFFFFFFFFFFFFFFFFFFFFFFFFFFFFFFd     o@&=:,2579qetuiipppiuytw08641>;*%@aFFFFF",
"FFFFFFj     X+$&-><3579qwrrtyyttreq08631>;*%@OnFFFFFFFFFFFFFFFFFFFFFFFFFFFFFFFFFFFc     X+$&-:<24790qertyyytreq98642,;=%@OzFFFFF",
"FFFFFFV     .o@%*-><346890qwwwwwq987531,;=&#O@DFFFFFFFFFFFFFFFFFFFFFFFFFFFFFFFFFFFSX     o@$*-><246890qwwwwwq097531,:=&#+oAFFFFF",
"FFFFFFF*     XO#%*;><23567899998775421,;=&#+X1FFFFFFFFFFFFFFFFFFFFFFFFFFFFFFFFFFFFF>     .o@%*-><23567899998775431,;=&$+X;FFFFFF",
"FFFFFFFr      .+#%*->,<2345566555321,>-=%#+X fFFFFFFFFFFFFFFFFFFFFFFFFFFFFFFFFFFFFFa      XO@%*-:><2335565655431,>;=&$+o uFFFFFF",
"FFFFFFFN       XO@%&=;>,<12233221<,>:-*%#+X oAFFFFFFFFFFFFFFFFFFFFFFFFFFFFFFFFFFFFFZ.      .O@$*=;:><12233221<,>;-*%#+o .BFFFFFF",
"FFFFFFFF3       XO@$&*=;;>,,,,,,::;-*&$@OX  wFFFFFFFFFFFFFFFFFFFFFFFFFFFFFFFFFFFFFFF9       XO+#%*=;;>,,,,,,>:--*&$@+X  6FFFFFFF",
"FFFFFFFFn        .o+#$%&==-;-;;-==*&$#+oX  oVFFFFFFFFFFFFFFFFFFFFFFFFFFFFFFFFFFFFFFFBX       Xo+@$%&*=-;-;;--=*&$#+O.  .MFFFFFFF",
"FFFFFFFFF0         .o+##$%%&*&&&%$#@+OX    iFFFFFFFFFFFFFFFFFFFFFFFFFFFFFFFFFFFFFFFFFy         .o+@#$%%&&*&&%$#@@OX    wFFFFFFFF",
"FFFFFFFFFA$         .XoO+@@@##@@++OoX.    :DFFFFFFFFFFFFFFFFFFFFFFFFFFFFFFFFFFFFFFFFFS=         .XoO+@@#####@++oX.    *SFFFFFFFF",
"FFFFFFFFFFbX            .XooOOooX..      +VFFFFFFFFFFFFFFFFFFFFFFFFFFFFFFFFFFFFFFFFFFFNO            XXoooooXXX       omFFFFFFFFF",
"FFFFFFFFFFFz                            onFFFFFFFFFFFFFFFFFFFFFFFFFFFFFFFFFFFFFFFFFFFFFvX                           .zFFFFFFFFFF",
"FFFFFFFFFFFFg.                         OzFFFFFFFFFFFFFFFFFFFFFFFFFFFFFFFFFFFFFFFFFFFFFFFlo                         XjFFFFFFFFFFF",
"FFFFFFFFFFFFFx+                       $mFFFFFFFFFFFFFFFFFFFFFFFFFFFFFFFFFFFFFFFFFFFFFFFFFb#                       @cFFFFFFFFFFFF",
"FFFFFFFFFFFFFFB>                     3AFFFFFFFFFFFFFFFFFFFFFFFFFFFFFFFFFFFFFFFFFFFFFFFFFFFZ2                     ,CFFFFFFFFFFFFF",
"FFFFFFFFFFFFFFFFf%                 -lFFFFFFFFFFFFFFFFFFFFFFFFFFFFFFFFFFFFFFFFFFFFFFFFFFFFFFFj*                 &hFFFFFFFFFFFFFFF",
"FFFFFFFFFFFFFFFFFFj1.           X5xFFFFFFFFFFFFFFFFFFFFFFFFSvgttyyujnDFFFFFFFFFFFFFFFFFFFFFFFFl4.           .2kFFFFFFFFFFFFFFFFF",
"FFFFFFFFFFFFFFFFFFFFZh8:+ooo#,0kAFFFFFFFFFFFFFFFFFFFFFFFSh5==;::,,<<<1qlDFFFFFFFFFFFFFFFFFFFFFFFSj0>@oOo+:9hAFFFFFFFFFFFFFFFFFFF",
"FFFFFFFFFFFFFFFFFFFFFFFFFFFFFFFFFFFFFFFFFFFFFFFFFFFFFFAu=&=-:,<1233333225gSFFFFFFFFFFFFFFFFFFFFFFFFFFFFFFFFFFFFFFFFFFFFFFFFFFFFF",
"FFFFFFFFFFFFFFFFFFFFFFFFFFFFFFFFFFFFFFFFFFFFFFFFFFFFFf&%&=:,<23456767765435zFFFFFFFFFFFFFFFFFFFFFFFFFFFFFFFFFFFFFFFFFFFFFFFFFFFF",
"FFFFFFFFFFFFFFFFFFFFFFFFFFFFFFFFFFFFFFFFFFFFFFFFFFFS7@$*-:,13567900000987542iDFFFFFFFFFFFFFFFFFFFFFFFFFFFFFFFFFFFFFFFFFFFFFFFFFF",
"FFFFFFFFFFFFFFFFFFFFFFFFFFFFFFFFFFFFFFFFFFFFFFFFFFB-+#&=><24689qqweerewq097539CFFFFFFFFFFFFFFFFFFFFFFFFFFFFFFFFFFFFFFFFFFFFFFFFF",
"FFFFFFFFFFFFFFFFFFFFFFFFFFFFFFFFFFFFFFFFFFFFFFFFFV&O#%-:,25690wrtyuuuyyreq07537ZFFFFFFFFFFFFFFFFFFFFFFFFFFFFFFFFFFFFFFFFFFFFFFFF",
"FFFFFFFFFFFFFFFFFFFFFFFFFFFFFFFFFFFFFFFFFFFFFFFFA*o@%=;,2479qeyuipaaapiitrw08530SFFFFFFFFFFFFFFFFFFFFFFFFFFFFFFFFFFFFFFFFFFFFFFF",
"FFFFFFFFFFFFFFFFFFFFFFFFFFFFFFFFFFFFFFFFFFFFFFFF1.O#&->1469qryipsdfffdsapurw0742tFFFFFFFFFFFFFFFFFFFFFFFFFFFFFFFFFFFFFFFFFFFFFFF",
"FFFFFFFFFFFFFFFFFFFFFFFFFFFFFFFFFFFFFFFFFFFFFFFd X@%=;<258qeypadghjkjjgfsputq963<xFFFFFFFFFFFFFFFFFFFFFFFFFFFFFFFFFFFFFFFFFFFFFF",
"FFFFFFFFFFFFFFFFFFFFFFFFFFFFFFFFFFFFFFFFFFFFFFZ+ o#&->1370wtisfhklxzxlkjgspye08524SFFFFFFFFFFFFFFFFFFFFFFFFFFFFFFFFFFFFFFFFFFFFF",
"FFFFFFFFFFFFFFFFFFFFFFFFFFFFFFFFFFFFFFFFFFFFFFe .O$*;,258wruafhlxvbbbvxlhfautq963,dFFFFFFFFFFFFFFFFFFFFFFFFFFFFFFFFFFFFFFFFFFFFF",
"FFFFFFFFFFFFFFFFFFFFFFFFFFFFFFFFFFFFFFFFFFFFFS+ X+$*:,369wtisgkxvnMNMnbxkhspye063<2FFFFFFFFFFFFFFFFFFFFFFFFFFFFFFFFFFFFFFFFFFFFF",
"FFFFFFFFFFFFFFFFFFFFFFFFFFFFFFFFFFFFFFFFFFFFFf  o+%=:<479eypfhlcmNVCVNnvzhfaye074<>zFFFFFFFFFFFFFFFFFFFFFFFFFFFFFFFFFFFFFFFFFFFF",
"FFFFFFFFFFFFFFFFFFFFFFFFFFFFFFFFFFFFFFFFFFFFF<  o+%=:<470ruafjzvmVASAVmvzkfaueq741>wFFFFFFFFFFFFFFFFFFFFFFFFFFFFFFFFFFFFFFFFFFFF",
"FFFFFFFFFFFFFFFFFFFFFFFFFFFFFFFFFFFFFFFFFFFFD.  X@%=>147qruafjxvMVAFAVMvzjfpur074<:>FFFFFFFFFFFFFFFFFFFFFFFFFFFFFFFFFFFFFFFFFFFF",
"FFFFFFFFFFFFFFFFFFFFFFFFFFFFFFFFFFFFFFFFFFFFv   o@%=:<470ruafhzvmBCZCNmczjfaye0741:=NFFFFFFFFFFFFFFFFFFFFFFFFFFFFFFFFFFFFFFFFFFF",
"FFFFFFFFFFFFFFFFFFFFFFFFFFFFFFFFFFFFFFFFFFFFd   X+%=:<370eypdhlcbmNNNmbxkgspyw963<;*kFFFFFFFFFFFFFFFFFFFFFFFFFFFFFFFFFFFFFFFFFFF",
"FFFFFFFFFFFFFFFFFFFFFFFFFFFFFFFFFFFFFFFFFFFFe   X+$*:<369wtiagjzcbnnbvxljfautq952,;*aFFFFFFFFFFFFFFFFFFFFFFFFFFFFFFFFFFFFFFFFFFF",
"FFFFFFFFFFFFFFFFFFFFFFFFFFFFFFFFFFFFFFFFFFFF0   .+#*-,2580rypdgjlzcxczlhfsite0741>-&uFFFFFFFFFFFFFFFFFFFFFFFFFFFFFFFFFFFFFFFFFFF",
"FFFFFFFFFFFFFFFFFFFFFFFFFFFFFFFFFFFFFFFFFFFF8    o#%->1469wtuadghjklkjhfspurq863<:=%rFFFFFFFFFFFFFFFFFFFFFFFFFFFFFFFFFFFFFFFFFFF",
"FFFFFFFFFFFFFFFFFFFFFFFFFFFFFFFFFFFFFFFFFFFFq    o+%=;,2580etupsdfggggdaiurw0741>-&$yFFFFFFFFFFFFFFFFFFFFFFFFFFFFFFFFFFFFFFFFFFF",
"FFFFFFFFFFFFFFFFFFFFFFFFFFFFFFFFFFFFFFFFFFFFr    .O#&-><368qetyipaasaapuyrw9752,:=%@pFFFFFFFFFFFFFFFFFFFFFFFFFFFFFFFFFFFFFFFFFFF",
"FFFFFFFFFFFFFFFFFFFFFFFFFFFFFFFFFFFFFFFFFFFFf     o@%*;>14680qetuuuiuuyteq9752<>-&#OkFFFFFFFFFFFFFFFFFFFFFFFFFFFFFFFFFFFFFFFFFFF",
"FFFFFFFFFFFFFFFFFFFFFFFFFFFFFFFFFFFFFFFFFFFFn     .O#&=:,136890werrrtewq08753<>-*$+oNFFFFFFFFFFFFFFFFFFFFFFFFFFFFFFFFFFFFFFFFFFF",
"FFFFFFFFFFFFFFFFFFFFFFFFFFFFFFFFFFFFFFFFFFFFF@     X+#&=:>1347890qqqq0997632<>-*%@o%FFFFFFFFFFFFFFFFFFFFFFFFFFFFFFFFFFFFFFFFFFFF",
"FFFFFFFFFFFFFFFFFFFFFFFFFFFFFFFFFFFFFFFFFFFFF4      o@$&=;><245667787765421,>-*%@O.7FFFFFFFFFFFFFFFFFFFFFFFFFFFFFFFFFFFFFFFFFFFF",
"FFFFFFFFFFFFFFFFFFFFFFFFFFFFFFFFFFFFFFFFFFFFFk      .o+$%=;:,<12344443321<>;-&%@OX cFFFFFFFFFFFFFFFFFFFFFFFFFFFFFFFFFFFFFFFFFFFF",
"FFFFFFFFFFFFFFFFFFFFFFFFFFFFFFFFFFFFFFFFFFFFFD$       o+#%*=;:,<<<<<<<<,:;-=%$+O. %FFFFFFFFFFFFFFFFFFFFFFFFFFFFFFFFFFFFFFFFFFFFF",
"FFFFFFFFFFFFFFFFFFFFFFFFFFFFFFFFFFFFFFFFFFFFFFp        o+@$%*=-;::::::;-=*&$#+o.  dFFFFFFFFFFFFFFFFFFFFFFFFFFFFFFFFFFFFFFFFFFFFF",
"FFFFFFFFFFFFFFFFFFFFFFFFFFFFFFFFFFFFFFFFFFFFFFF=        .O+@#%&**====**&%$#@oX.  -FFFFFFFFFFFFFFFFFFFFFFFFFFFFFFFFFFFFFFFFFFFFFF",
"FFFFFFFFFFFFFFFFFFFFFFFFFFFFFFFFFFFFFFFFFFFFFFFz         .Xo+@##$$$%$$$#@+OX.    vFFFFFFFFFFFFFFFFFFFFFFFFFFFFFFFFFFFFFFFFFFFFFF",
"FFFFFFFFFFFFFFFFFFFFFFFFFFFFFFFFFFFFFFFFFFFFFFFFr           XXOO+++++OOOo.      yFFFFFFFFFFFFFFFFFFFFFFFFFFFFFFFFFFFFFFFFFFFFFFF",
"FFFFFFFFFFFFFFFFFFFFFFFFFFFFFFFFFFFFFFFFFFFFFFFFD<              .XXXX...       2FFFFFFFFFFFFFFFFFFFFFFFFFFFFFFFFFFFFFFFFFFFFFFFF",
"FFFFFFFFFFFFFFFFFFFFFFFFFFFFFFFFFFFFFFFFFFFFFFFFFA;                           :SFFFFFFFFFFFFFFFFFFFFFFFFFFFFFFFFFFFFFFFFFFFFFFFF",
"FFFFFFFFFFFFFFFFFFFFFFFFFFFFFFFFFFFFFFFFFFFFFFFFFFA<                         3SFFFFFFFFFFFFFFFFFFFFFFFFFFFFFFFFFFFFFFFFFFFFFFFFF",
"FFFFFFFFFFFFFFFFFFFFFFFFFFFFFFFFFFFFFFFFFFFFFFFFFFFFt                       aFFFFFFFFFFFFFFFFFFFFFFFFFFFFFFFFFFFFFFFFFFFFFFFFFFF",
"FFFFFFFFFFFFFFFFFFFFFFFFFFFFFFFFFFFFFFFFFFFFFFFFFFFFFz&                   *cFFFFFFFFFFFFFFFFFFFFFFFFFFFFFFFFFFFFFFFFFFFFFFFFFFFF",
"FFFFFFFFFFFFFFFFFFFFFFFFSAAADFFFFFFFFFFFFFFFFFFFFFFFFFDd*               =fDFFFFFFFFFFFFFFFFFFFFFFFFFSAZASFFFFFFFFFFFFFFFFFFFFFFF",
"FFFFFFFFFFFFFFFFFFFFvp7<-;:>>4egMFFFFFFFFFFFFFFFFFFFFFFFFv0%         *0bFFFFFFFFFFFFFFFFFFFFFFFFna91-::>>4wfmFFFFFFFFFFFFFFFFFFF",
"FFFFFFFFFFFFFFFFFZu:&=-:,<<1112117hDFFFFFFFFFFFFFFFFFFFFFFFFBlitttilVFFFFFFFFFFFFFFFFFFFFFFFFSp,&=->>,111111<6fSFFFFFFFFFFFFFFFF",
"FFFFFFFFFFFFFFFSi&%=-:,1224445554325kFFFFFFFFFFFFFFFFFFFFFFFFFFFFFFFFFFFFFFFFFFFFFFFFFFFFFFFa*&*-:><133455544324hDFFFFFFFFFFFFFF",
"FFFFFFFFFFFFFFb-#%*;><235677888876542qVFFFFFFFFFFFFFFFFFFFFFFFFFFFFFFFFFFFFFFFFFFFFFFFFFFFm>#&=-><2346778888775428NFFFFFFFFFFFFF",
"FFFFFFFFFFFFFa@#%=;>1346890qwwwq0997534vFFFFFFFFFFFFFFFFFFFFFFFFFFFFFFFFFFFFFFFFFFFFFFFFFg#@%=;><256790qwqww0997643zFFFFFFFFFFFF",
"FFFFFFFFFFFFyo@%=;>13589qwrrrttrreq08642zFFFFFFFFFFFFFFFFFFFFFFFFFFFFFFFFFFFFFFFFFFFFFFFsO@$=;><35790wertrtteew09642hFFFFFFFFFFF",
"FFFFFFFFFFFtX+$&->13570wrtuuiiiiuyre09642zFFFFFFFFFFFFFFFFFFFFFFFFFFFFFFFFFFFFFFFFFFFFFaX+$&-><3680qetyiiiiuuyre08741hFFFFFFFFFF",
"FFFFFFFFFFj.O@&-:<3580eryipssdssaputeq9642MFFFFFFFFFFFFFFFFFFFFFFFFFFFFFFFFFFFFFFFFFFFx.O@%=:,2480wtuiaassssaputeq9641bFFFFFFFFF",
"FFFFFFFFFBOX+$*;,2470etupsfgghggfspite08536SFFFFFFFFFFFFFFFFFFFFFFFFFFFFFFFFFFFFFFFFFZ#X+#*;,2579wtupafgghhgfsaiyeq8624ZFFFFFFFF",
"FFFFFFFFF, o@&=:<369wrupdgjkllkkjgdaitw0741iFFFFFFFFFFFFFFFFFFFFFFFFFFFFFFFFFFFFFFFFF6 o@%-:<369qtupdfhklllkjgfaitw0731rFFFFFFFF",
"FFFFFFFFl .O$&;>258qrupdhjlxcvcxzjhdpueq852,BFFFFFFFFFFFFFFFFFFFFFFFFFFFFFFFFFFFFFFFb .O#&->2480eypsgjlxcccxzkgdaurq952,nFFFFFFF",
"FFFFFFFF: X+$*;,369wtisfjzcbnmnbczjgsitw953<tFFFFFFFFFFFFFFFFFFFFFFFFFFFFFFFFFFFFFFF2 .O$*;,268wtusfjzcbmmnbczjgsiyw963<0FFFFFFF",
"FFFFFFFb  X@$=:<360wypdhlxbMBBNMbclhdpye063<>ZFFFFFFFFFFFFFFFFFFFFFFFFFFFFFFFFFFFFFV. X+$=;<460wyishkxbmBBNMnclhfpue073<>BFFFFFF",
"FFFFFFF9  X+%=:<470euafjzvmBZACBmvzjfpye0731:fFFFFFFFFFFFFFFFFFFFFFFFFFFFFFFFFFFFFFt  o+%=:<370eyafhzcmNCAZBmbzjfaur0741:pFFFFFF",
"FFFFFFF@  o@%=:148qruafjxbMVAFAVMvzjfaurq74<:7FFFFFFFFFFFFFFFFFFFFFFFFFFFFFFFFFFFFF-  X@%=:<480ruafjzbMVAFACMvzkfaurq741>3FFFFFF",
"FFFFFFN   o@%=:<470ruafjzvMVASZVmvzhfaye074<:-DFFFFFFFFFFFFFFFFFFFFFFFFFFFFFFFFFFFA.  X@%=:<470ruafjzvMBZSZBmvzjfaueq731:=CFFFFF",
"FFFFFFg   o@%=:147qeupfjzvnMVVBNbclhspye973<:*nFFFFFFFFFFFFFFFFFFFFFFFFFFFFFFFFFFFz   X+$=:1370eypdjzcnNVVVMnclhdaye064<:=zFFFFF",
"FFFFFFt   X+%=:<469wypdgkxvnMMmbczkgsitw862<;*jFFFFFFFFFFFFFFFFFFFFFFFFFFFFFFFFFFFs   .+$*:<379wyisgkzvnmMmnvzjgsitw963<:*sFFFFF",
"FFFFFF9   .+$*;<269qtuafhlzcvbvczkgdpyrq852,;&sFFFFFFFFFFFFFFFFFFFFFFFFFFFFFFFFFFFr   X+$*;,258qruafhkzcvbvczkhfaurq852,-*yFFFFF",
"FFFFFF6   XO#&-,2580eyisfhklzzlljhdaitw964<>=%uFFFFFFFFFFFFFFFFFFFFFFFFFFFFFFFFFFFw   .O#&->1470etisfhklzzzlkgdaitw9741>-&eFFFFF",
"FFFFFF6    O@%=:<369qrypadghjjjgfdaiyw0752,;*$uFFFFFFFFFFFFFFFFFFFFFFFFFFFFFFFFFFFw    o@%=:<368qrypadfhhjjgfdaite0852,;*%wFFFFF",
"FFFFFF0    X+$*;>1479wryiasddfdsapiteq863<:=&@pFFFFFFFFFFFFFFFFFFFFFFFFFFFFFFFFFFFt    .+$*->1479qryipsddfddapiyeq863<>-&#rFFFFF",
"FFFFFFt    .O#&=:<3570wetuippapiuyreq8641,-*$+hFFFFFFFFFFFFFFFFFFFFFFFFFFFFFFFFFFFs    .O@%=:,2579wetuiipapiiytw09641>;*$@pFFFFF",
"FFFFFFh     X+$&-><3579qwrtyyyytreq08642,;=%#onFFFFFFFFFFFFFFFFFFFFFFFFFFFFFFFFFFFv     X+$&-><25790wrtyyyytrew08641,:=%#OlFFFFF",
"FFFFFFB     .O@%*;><346800qweewwq097531,:=&#O+DFFFFFFFFFFFFFFFFFFFFFFFFFFFFFFFFFFFA.    .o@$*;><246890qwewewq998541,:=&#+XZFFFFF",
"FFFFFFF%     .O#%*-><1356889999887542<>;=&$+o<FFFFFFFFFFFFFFFFFFFFFFFFFFFFFFFFFFFFF:     .O#%*;><2356889999886643<,:=&$+o-FFFFFF",
"FFFFFFFe      XO#%=-:,12345666655321<>;=%#+o dFFFFFFFFFFFFFFFFFFFFFFFFFFFFFFFFFFFFFi      XO@%*->,12345666665421<>;=&$@o yFFFFFF",
"FFFFFFFm       X+#%&=;>><12323221<,>;-*%#+o XZFFFFFFFFFFFFFFFFFFFFFFFFFFFFFFFFFFFFFC       XO#$&=;:,<11223222<,,:-*%#@o. NFFFFFF",
"FFFFFFFF1       XO@$%*=;:>,,,<,,>:;-=&$#OX  0FFFFFFFFFFFFFFFFFFFFFFFFFFFFFFFFFFFFFFF7       XO@$%*=;::>,,<,,>:;-=&$@Oo  4FFFFFFF",
"FFFFFFFFv        .o+#$&*==;;;;;--=*&$#+oX  .BFFFFFFFFFFFFFFFFFFFFFFFFFFFFFFFFFFFFFFFN.       .o+@$&&==-;;;-;-**&$#@O.   nFFFFFFF",
"FFFFFFFFF7         XO+##%%&&&&*&%$##@OX    yFFFFFFFFFFFFFFFFFFFFFFFFFFFFFFFFFFFFFFFFFe         XO+#$$&&&&&*&%%$@@Oo.   0FFFFFFFF",
"FFFFFFFFFC@          XoO+@######@+OoX.    =SFFFFFFFFFFFFFFFFFFFFFFFFFFFFFFFFFFFFFFFFFS&         .XoO+@@#$##@@+OOX     %AFFFFFFFF",
"FFFFFFFFFFc            .XXooOOoooX.      ONFFFFFFFFFFFFFFFFFFFFFFFFFFFFFFFFFFFFFFFFFFFmo           .XoooOOoooX.      .bFFFFFFFFF",
"FFFFFFFFFFFh.               .           XvFFFFFFFFFFFFFFFFFFFFFFFFFFFFFFFFFFFFFFFFFFFFFz.                            kFFFFFFFFFF",
"FFFFFFFFFFFFa.                         XjFFFFFFFFFFFFFFFFFFFFFFFFFFFFFFFFFFFFFFFFFFFFFFFg.                         .sFFFFFFFFFFF",
"FFFFFFFFFFFFFjo                       @vFFFFFFFFFFFFFFFFFFFFFFFFFFFFFFFFFFFFFFFFFFFFFFFFFx@                       OlFFFFFFFFFFFF",
"FFFFFFFFFFFFFFM=                     ,CFFFFFFFFFFFFFFFFFFFFFFFFFFFFFFFFFFFFFFFFFFFFFFFFFFFB>                     ;NFFFFFFFFFFFFF",
"FFFFFFFFFFFFFFFFp@                 $gFFFFFFFFFFFFFFFFFFFFFFFFFFFFFFFFFFFFFFFFFFFFFFFFFFFFFFFd$                 #aFFFFFFFFFFFFFFF",
"FFFFFFFFFFFFFFFFFDs:            .<gFFFFFFFFFFFFFFFFFFFFFFFFFFFFFFFFFFFFFFFFFFFFFFFFFFFFFFFFFFDf<             >dDFFFFFFFFFFFFFFFF",
"FFFFFFFFFFFFFFFFFFFFBa4;+. .@;6fCFFFFFFFFFFFFFFFFFFFFFFFFFFFFFFFFFFFFFFFFFFFFFFFFFFFFFFFFFFFFFFFVd6;@. .@;5sVFFFFFFFFFFFFFFFFFFF",
"FFFFFFFFFFFFFFFFFFFFFFFFFFFFFFFFFFFFFFFFFFFFFFFFFFFFFFFFFFFFFFFFFFFFFFFFFFFFFFFFFFFFFFFFFFFFFFFFFFFFFFFFFFFFFFFFFFFFFFFFFFFFFFFF",
"FFFFFFFFFFFFFFFFFFFFFFFFFFFFFFFFFFFFFFFFFFFFFFFFFFFFFFFFFFFFFFFFFFFFFFFFFFFFFFFFFFFFFFFFFFFFFFFFFFFFFFFFFFFFFFFFFFFFFFFFFFFFFFFF",
"FFFFFFFFFFFFFFFFFFFFFFFFFFFFFFFFFFFFFFFFFFFFFFFFFFFFFFFFFFFFFFFFFFFFFFFFFFFFFFFFFFFFFFFFFFFFFFFFFFFFFFFFFFFFFFFFFFFFFFFFFFFFFFFF",
"FFFFFFFFFFFFFFFFFFFFFFFFFFFFFFFFFFFFFFFFFFFFFFFFFFFFFFFFFFFFFFFFFFFFFFFFFFFFFFFFFFFFFFFFFFFFFFFFFFFFFFFFFFFFFFFFFFFFFFFFFFFFFFFF",
"FFFFFFFFFFFFFFFFFFFFFFFFFFFFFFFFFFFFFFFFFFFFFFFFFFFFFFFFFFFFFFFFFFFFFFFFFFFFFFFFFFFFFFFFFFFFFFFFFFFFFFFFFFFFFFFFFFFFFFFFFFFFFFFF"
};
